<?xml version="1.0" encoding="UTF-8" standalone="no"?>
<!-- Created with Inkscape (http://www.inkscape.org/) -->

<svg
   xmlns:dc="http://purl.org/dc/elements/1.1/"
   xmlns:cc="http://creativecommons.org/ns#"
   xmlns:rdf="http://www.w3.org/1999/02/22-rdf-syntax-ns#"
   xmlns:svg="http://www.w3.org/2000/svg"
   xmlns="http://www.w3.org/2000/svg"
   xmlns:sodipodi="http://sodipodi.sourceforge.net/DTD/sodipodi-0.dtd"
   xmlns:inkscape="http://www.inkscape.org/namespaces/inkscape"
   id="svg3406"
   version="1.1"
   inkscape:version="0.91 r13725"
   width="128"
   height="128"
   viewBox="0 0 128 128"
   sodipodi:docname="ic_launcher.svg"
   inkscape:export-filename="/home/justin/git/android/quarterfull-android/res/mipmap-hdpi/ic_launcher.png"
   inkscape:export-xdpi="50.619999"
   inkscape:export-ydpi="50.619999">
  <metadata
     id="metadata3412">
    <rdf:RDF>
      <cc:Work
         rdf:about="">
        <dc:format>image/svg+xml</dc:format>
        <dc:type
           rdf:resource="http://purl.org/dc/dcmitype/StillImage" />
        <dc:title></dc:title>
      </cc:Work>
    </rdf:RDF>
  </metadata>
  <defs
     id="defs3410" />
  <sodipodi:namedview
     pagecolor="#ffffff"
     bordercolor="#666666"
     borderopacity="1"
     objecttolerance="10"
     gridtolerance="10"
     guidetolerance="10"
     inkscape:pageopacity="0"
     inkscape:pageshadow="2"
     inkscape:window-width="983"
     inkscape:window-height="1042"
     id="namedview3408"
     showgrid="false"
     inkscape:snap-text-baseline="false"
     inkscape:zoom="3.1601563"
     inkscape:cx="186.49271"
     inkscape:cy="49.279536"
     inkscape:window-x="10"
     inkscape:window-y="178"
     inkscape:window-maximized="0"
     inkscape:current-layer="svg3406" />
  <path
     style="fill:#9279e8;fill-opacity:1"
     d=""
     id="path4265"
     inkscape:connector-curvature="0" />
  <path
     style="fill:#9279e8;fill-opacity:0;stroke:none;stroke-width:1px;stroke-linecap:butt;stroke-linejoin:miter;stroke-opacity:1"
     d="M 16.210116,127.22616 C 10.355041,126.05026 4.033759,120.62932 1.8178018,114.88375 0.66955652,111.90656 0.6116685,109.44797 0.6116685,63.65758 l 0,-48.098888 1.4920501,-3.299687 C 3.8733487,8.3454458 8.6220882,3.6859992 12.815351,1.7487885 15.79978,0.37003705 15.817079,0.36956998 63.899678,0.36956998 l 48.098892,0 3.53557,1.65802892 c 4.49408,2.1075264 7.88799,5.5014405 9.99552,9.9955201 l 1.65803,3.535573 0,48.428637 0,48.428631 -2.06043,4.18532 c -2.28101,4.63339 -5.92174,8.09071 -10.40831,9.88395 -2.4764,0.98979 -6.89234,1.09659 -49.237071,1.19078 -25.584178,0.0569 -47.756472,-0.14553 -49.271763,-0.44985 z M 75.212125,90.00841 C 80.960271,87.178607 86.23608,82.172747 88.531176,77.370838 l 1.831953,-3.83288 2.265293,2.793476 c 1.245913,1.536411 3.693122,3.585266 5.438238,4.553009 2.72853,1.51309 3.88209,1.75954 8.23598,1.75954 4.43803,0 5.48483,-0.23359 8.47978,-1.892223 3.65381,-2.023527 7.58807,-6.646475 8.83805,-10.385158 0.39559,-1.183219 0.71647,-3.888782 0.71307,-6.01236 -0.008,-5.171661 -1.99487,-9.343061 -6.28763,-13.202618 -7.50699,-6.749436 -16.78025,-6.485873 -24.090629,0.6847 l -3.663882,3.593815 -2.03464,-3.961951 C 84.627831,44.401776 77.120271,39.107408 68.171619,37.304051 63.75547,36.414096 59.353185,37.021668 53.003257,39.397481 48.680263,41.01492 42.347702,46.820525 39.87773,51.430782 c -0.991984,1.851562 -1.874896,3.457661 -1.962024,3.569109 -0.08713,0.111448 -1.440363,-1.079313 -3.007185,-2.646136 -4.416942,-4.416942 -7.460965,-5.7546 -13.095369,-5.7546 -3.691962,0 -5.34032,0.313996 -7.418745,1.413197 -6.4259472,3.398443 -10.2390436,8.932665 -10.7776332,15.642355 -0.2673602,3.330746 -0.060834,4.529643 1.2877109,7.47525 4.4023697,9.616044 12.9177173,13.699209 22.5833043,10.828838 2.538227,-0.753773 4.229201,-1.857978 6.833487,-4.462267 1.903348,-1.903349 3.526703,-3.374985 3.607454,-3.270306 0.08075,0.104672 0.800409,1.523488 1.59924,3.15292 1.854086,3.781914 6.547797,8.708348 10.508368,11.029397 5.557736,3.257048 8.846145,4.096203 15.19349,3.877144 5.00417,-0.172694 6.31451,-0.471628 9.982297,-2.277273 z"
     id="path4221"
     inkscape:connector-curvature="0" />
  <path
     style="fill:#9279e8;fill-opacity:0"
     d="M 16.210116,127.22616 C 10.355041,126.05026 4.033759,120.62932 1.8178018,114.88375 0.66955652,111.90656 0.6116685,109.44797 0.6116685,63.65758 l 0,-48.098888 1.4920501,-3.299687 C 3.8733487,8.3454458 8.6220882,3.6859992 12.815351,1.7487885 15.79978,0.37003705 15.817079,0.36956998 63.899678,0.36956998 l 48.098892,0 3.53557,1.65802892 c 4.49408,2.1075264 7.88799,5.5014405 9.99552,9.9955201 l 1.65803,3.535573 0,48.428637 0,48.428631 -2.06043,4.18532 c -2.28101,4.63339 -5.92174,8.09071 -10.40831,9.88395 -2.4764,0.98979 -6.89234,1.09659 -49.237071,1.19078 -25.584178,0.0569 -47.756472,-0.14553 -49.271763,-0.44985 z M 75.212125,90.00841 C 80.960271,87.178607 86.23608,82.172747 88.531176,77.370838 l 1.831953,-3.83288 2.265293,2.793476 c 1.245913,1.536411 3.693122,3.585266 5.438238,4.553009 2.72853,1.51309 3.88209,1.75954 8.23598,1.75954 4.43803,0 5.48483,-0.23359 8.47978,-1.892223 3.65381,-2.023527 7.58807,-6.646475 8.83805,-10.385158 0.39559,-1.183219 0.71647,-3.888782 0.71307,-6.01236 -0.008,-5.171661 -1.99487,-9.343061 -6.28763,-13.202618 -7.50699,-6.749436 -16.78025,-6.485873 -24.090629,0.6847 l -3.663882,3.593815 -2.03464,-3.961951 C 84.627831,44.401776 77.120271,39.107408 68.171619,37.304051 63.75547,36.414096 59.353185,37.021668 53.003257,39.397481 48.680263,41.01492 42.347702,46.820525 39.87773,51.430782 c -0.991984,1.851562 -1.874896,3.457661 -1.962024,3.569109 -0.08713,0.111448 -1.440363,-1.079313 -3.007185,-2.646136 -4.416942,-4.416942 -7.460965,-5.7546 -13.095369,-5.7546 -3.691962,0 -5.34032,0.313996 -7.418745,1.413197 -6.4259472,3.398443 -10.2390436,8.932665 -10.7776332,15.642355 -0.2673602,3.330746 -0.060834,4.529643 1.2877109,7.47525 4.4023697,9.616044 12.9177173,13.699209 22.5833043,10.828838 2.538227,-0.753773 4.229201,-1.857978 6.833487,-4.462267 1.903348,-1.903349 3.526703,-3.374985 3.607454,-3.270306 0.08075,0.104672 0.800409,1.523488 1.59924,3.15292 1.854086,3.781914 6.547797,8.708348 10.508368,11.029397 5.557736,3.257048 8.846145,4.096203 15.19349,3.877144 5.00417,-0.172694 6.31451,-0.471628 9.982297,-2.277273 z"
     id="path4223"
     inkscape:connector-curvature="0" />
  <path
     style="fill:#9279e8;fill-opacity:0"
     d="M 16.210116,127.22616 C 10.355041,126.05026 4.033759,120.62932 1.8178018,114.88375 0.66955652,111.90656 0.6116685,109.44797 0.6116685,63.65758 l 0,-48.098888 1.4920501,-3.299687 C 3.8733487,8.3454458 8.6220882,3.6859992 12.815351,1.7487885 15.79978,0.37003705 15.817079,0.36956998 63.899678,0.36956998 l 48.098892,0 3.53557,1.65802892 c 4.49408,2.1075264 7.88799,5.5014405 9.99552,9.9955201 l 1.65803,3.535573 0,48.428637 0,48.428631 -2.06043,4.18532 c -2.28101,4.63339 -5.92174,8.09071 -10.40831,9.88395 -2.4764,0.98979 -6.89234,1.09659 -49.237071,1.19078 -25.584178,0.0569 -47.756472,-0.14553 -49.271763,-0.44985 z M 75.212125,90.00841 C 80.960271,87.178607 86.23608,82.172747 88.531176,77.370838 l 1.831953,-3.83288 2.265293,2.793476 c 1.245913,1.536411 3.693122,3.585266 5.438238,4.553009 2.72853,1.51309 3.88209,1.75954 8.23598,1.75954 4.43803,0 5.48483,-0.23359 8.47978,-1.892223 3.65381,-2.023527 7.58807,-6.646475 8.83805,-10.385158 0.39559,-1.183219 0.71647,-3.888782 0.71307,-6.01236 -0.008,-5.171661 -1.99487,-9.343061 -6.28763,-13.202618 -7.50699,-6.749436 -16.78025,-6.485873 -24.090629,0.6847 l -3.663882,3.593815 -2.03464,-3.961951 C 84.627831,44.401776 77.120271,39.107408 68.171619,37.304051 63.75547,36.414096 59.353185,37.021668 53.003257,39.397481 48.680263,41.01492 42.347702,46.820525 39.87773,51.430782 c -0.991984,1.851562 -1.874896,3.457661 -1.962024,3.569109 -0.08713,0.111448 -1.440363,-1.079313 -3.007185,-2.646136 -4.416942,-4.416942 -7.460965,-5.7546 -13.095369,-5.7546 -3.691962,0 -5.34032,0.313996 -7.418745,1.413197 -6.4259472,3.398443 -10.2390436,8.932665 -10.7776332,15.642355 -0.2673602,3.330746 -0.060834,4.529643 1.2877109,7.47525 4.4023697,9.616044 12.9177173,13.699209 22.5833043,10.828838 2.538227,-0.753773 4.229201,-1.857978 6.833487,-4.462267 1.903348,-1.903349 3.526703,-3.374985 3.607454,-3.270306 0.08075,0.104672 0.800409,1.523488 1.59924,3.15292 1.854086,3.781914 6.547797,8.708348 10.508368,11.029397 5.557736,3.257048 8.846145,4.096203 15.19349,3.877144 5.00417,-0.172694 6.31451,-0.471628 9.982297,-2.277273 z"
     id="path4225"
     inkscape:connector-curvature="0" />
  <path
     style="fill:#9279e8;fill-opacity:1"
     d="m 18.994559,127.39062 c -0.34808,-0.1505 -1.30086,-0.28364 -2.11729,-0.29587 -0.81643,-0.0122 -1.57242,-0.16464 -1.67999,-0.33869 -0.10756,-0.17404 -0.53476,-0.31644 -0.94932,-0.31644 -0.41456,0 -0.84175,-0.14239 -0.94932,-0.31644 -0.10756,-0.17404 -0.47196,-0.31644 -0.80977,-0.31644 -0.33782,0 -0.61421,-0.14239 -0.61421,-0.31644 0,-0.17404 -0.28479,-0.31644 -0.63288,-0.31644 -0.34808,0 -0.63288,-0.1328 -0.63288,-0.29511 0,-0.16232 -0.30103,-0.39066 -0.6689698,-0.50744 -1.0361797,-0.32887 -5.4266897,-4.91012 -6.1344897,-6.401 -0.34808,-0.73318 -0.73968,-1.3347 -0.87021,-1.3367 -0.13053,-0.002 -0.23733,-0.28002 -0.23733,-0.61783 0,-0.33781 -0.1424,-0.70221 -0.31644,-0.80978 -0.17404,-0.10756 -0.31644,-0.53476 -0.31644,-0.94932 0,-0.41456 -0.12512,-0.83107 -0.27804,-0.92559 -0.15292,-0.0945 -0.38978,-1.0641 -0.52635,-2.15464 -0.32399995,-2.58711 -0.32433995,-91.878262 -3.7e-4,-94.462413 0.13637,-1.087763 0.37323,-1.97775 0.52635,-1.97775 0.15313,0 0.27841,-0.427195 0.27841,-0.949321 0,-0.522126 0.1424,-0.94932 0.31644,-0.94932 0.17404,0 0.31644,-0.209266 0.31644,-0.465035 0,-0.255769 0.30112,-1.003359 0.66916,-1.66131 0.72531,-1.2966589 3.75706,-5.1508552 4.05358,-5.1532402 0.10015,-8.06e-4 0.60928,-0.400983 1.1314,-0.889283 1.0919197,-1.021175 5.3364395,-3.222974 6.2130995,-3.222974 0.3247,0 0.59036,-0.12975 0.59036,-0.288333 0,-0.15858395 0.88999,-0.38786995 1.97775,-0.50952395 2.61926,-0.292937 91.978761,-0.296726 94.220031,-0.004 0.95723,0.125024 1.8757,0.35658695 2.04104,0.51458495 0.16534,0.157997 0.48746,0.287268 0.71582,0.287268 0.22836,0 1.51706,0.52771 2.86378,1.172689 3.09757,1.483509 7.04344,5.286451 8.46906,8.1622932 0.51766,1.044252 1.048,1.946106 1.17853,2.00412 0.13053,0.05801 0.23733,0.520808 0.23733,1.02843 0,0.507623 0.12581,0.922951 0.27957,0.922951 0.15377,0 0.38928,0.961186 0.52336,2.13597 0.30484,2.671017 0.30252,91.626527 -0.003,94.220027 -0.1228,1.04425 -0.35314,2.03392 -0.51187,2.19926 -0.15872,0.16534 -0.28859,0.55188 -0.28859,0.85898 0,0.3071 -0.37879,1.2398 -0.84174,2.07268 -0.46296,0.83287 -0.99695,1.79361 -1.18665,2.13496 -0.1897,0.34135 -0.52507,0.81648 -0.74525,1.05582 -0.22019,0.23935 -0.76315,0.91085 -1.20659,1.49223 -1.50763,1.97669 -6.86178,5.53341 -8.32972,5.53341 -0.2956,0 -0.67273,0.12927 -0.83807,0.28727 -0.16534,0.158 -1.08381,0.3886 -2.04104,0.51246 -2.54346,0.32909 -92.126401,0.475 -92.875161,0.15127 z m 50.94685,-35.442961 c 0.10757,-0.174042 0.67716,-0.316441 1.26576,-0.316441 0.58861,0 1.1582,-0.142398 1.26576,-0.31644 0.10757,-0.174042 0.4739,-0.31644 0.81407,-0.31644 0.34018,0 0.86576,-0.126462 1.16798,-0.281027 0.30221,-0.154565 1.33266,-0.677729 2.28989,-1.162585 3.00744,-1.52333 2.80576,-1.391684 5.7389,-3.746046 0.98087,-0.787318 2.25877,-2.042101 2.83979,-2.788406 0.58101,-0.746305 1.13812,-1.428116 1.23802,-1.515137 0.75479,-0.657458 2.84089,-4.266204 2.84089,-4.914447 0,-0.255769 0.1424,-0.465034 0.31644,-0.465034 0.17405,0 0.31644,-0.276391 0.31644,-0.614204 0,-0.337812 0.1424,-0.702212 0.31644,-0.809776 0.17405,-0.107564 0.31644,-0.505662 0.31644,-0.884662 0,-0.525658 0.26302,-0.298539 1.10896,0.957614 1.24769,1.852718 4.22155,4.831043 4.8243,4.83154 0.21755,1.8e-4 0.39555,0.142727 0.39555,0.316769 0,0.174042 0.21359,0.31644 0.47466,0.31644 0.26106,0 0.47466,0.142398 0.47466,0.31644 0,0.174042 0.28479,0.31644 0.63288,0.31644 0.34808,0 0.63288,0.142398 0.63288,0.31644 0,0.174042 0.34759,0.31644 0.772421,0.31644 0.42483,0 0.86043,0.142398 0.968,0.31644 0.10756,0.174042 0.58588,0.31644 1.06292,0.31644 0.47705,0 1.01899,0.151632 1.20432,0.336961 0.21605,0.216046 1.57296,0.284084 3.78146,0.189605 3.86765,-0.165454 5.8178,-0.459639 5.8178,-0.877628 0,-0.154998 0.28046,-0.281818 0.62325,-0.281818 1.1506,0 4.28281,-1.979386 6.1228,-3.86928 1.55962,-1.601912 3.81538,-5.11282 4.32498,-6.731462 0.21918,-0.696168 0.52342,-1.513023 0.6761,-1.815236 0.15267,-0.302213 0.27759,-2.225203 0.27759,-4.273311 0,-3.138421 -0.11863,-4.046974 -0.75458,-5.779325 -0.88216,-2.402982 -2.10062,-4.74523 -2.46853,-4.74523 -0.14175,0 -0.25773,-0.178912 -0.25773,-0.397585 0,-0.609321 -3.46679,-3.750011 -5.39863,-4.890819 -1.63572,-0.965945 -2.97139,-1.494875 -5.84063,-2.312917 -1.83345,-0.522727 -7.87019,-0.08929 -8.85468,0.635763 -0.17405,0.128177 -0.67881,0.31926 -1.1217,0.424631 -2.275131,0.541277 -8.529731,5.804273 -8.529731,7.177424 0,0.172051 -0.13195,0.312823 -0.29323,0.312823 -0.16128,0 -0.35836,0.249196 -0.43795,0.55377 -0.089,0.340698 -0.15884,0.218945 -0.18143,-0.31644 -0.0202,-0.478616 -0.1791,-0.87021 -0.35315,-0.87021 -0.17404,0 -0.31644,-0.276392 -0.31644,-0.614204 0,-0.337813 -0.14239,-0.702212 -0.31644,-0.809777 -0.17404,-0.107564 -0.31644,-0.471964 -0.31644,-0.809776 0,-0.337812 -0.12579,-0.614204 -0.27953,-0.614204 -0.15374,0 -0.35856,-0.249196 -0.45515,-0.55377 -0.89935,-2.835863 -7.02958,-9.106702 -10.33116,-10.568123 -0.52738,-0.233444 -0.95888,-0.532078 -0.95888,-0.663635 0,-0.131557 -0.28479,-0.239194 -0.63288,-0.239194 -0.34808,0 -0.63288,-0.142398 -0.63288,-0.31644 0,-0.174042 -0.27639,-0.31644 -0.6142,-0.31644 -0.33781,0 -0.70221,-0.142398 -0.80978,-0.31644 -0.10756,-0.174042 -0.61436,-0.31644 -1.12621,-0.31644 -0.51186,0 -0.93065,-0.142398 -0.93065,-0.31644 0,-0.174042 -0.56959,-0.31644 -1.26576,-0.31644 -0.69617,0 -1.26576,-0.142398 -1.26576,-0.31644 0,-0.428055 -10.65263,-0.428055 -10.91718,0 -0.10756,0.174042 -0.67716,0.31644 -1.26576,0.31644 -0.5886,0 -1.1582,0.142398 -1.26576,0.31644 -0.10757,0.174042 -0.4739,0.31644 -0.81407,0.31644 -0.34017,0 -0.86576,0.126813 -1.16798,0.281809 -0.30221,0.154995 -1.26146,0.609935 -2.13167,1.010978 -1.68545,0.776753 -3.97318,2.285204 -5.60931,3.69859 -2.58298,2.231332 -5.29184,5.29926 -5.30211,6.004915 -0.003,0.217552 -0.12158,0.39555 -0.26314,0.39555 -0.14156,0 -0.45293,0.498393 -0.69194,1.10754 -0.23901,0.609147 -0.55039,1.10754 -0.69195,1.10754 -0.14155,0 -0.25737,0.168065 -0.25737,0.373479 0,0.20541 -0.30545,1.049321 -0.67877,1.875356 -0.74502,1.648495 -0.70802,1.656599 -2.32127,-0.508415 -0.51874,-0.696168 -1.40409,-1.728661 -1.96744,-2.294427 -1.2733,-1.278776 -4.69897,-3.515285 -5.77733,-3.771839 -0.44289,-0.105371 -0.94765,-0.296454 -1.1217,-0.424631 -0.98639,-0.726461 -7.02333,-1.158683 -8.85467,-0.633965 -0.69928,0.200357 -1.7698,0.507316 -2.37895,0.68213 -1.08421,0.311153 -4.11712,1.781615 -4.43016,2.147907 -0.087,0.101824 -0.82109,0.682618 -1.63126,1.290658 -2.4948795,1.87242 -4.6532795,5.225991 -5.9194495,9.197216 -0.46889,1.470636 -0.46535,7.993367 0.005,9.448267 1.00787,3.116691 2.31681,5.420713 4.38118,7.711843 1.7223995,1.911592 5.4429195,4.335346 6.6548695,4.335346 0.34279,0 0.62325,0.142398 0.62325,0.31644 0,0.174042 0.36536,0.31644 0.81191,0.31644 0.44654,0 1.09111,0.149426 1.43236,0.33206 0.80364,0.430095 6.93297,0.426925 7.3637,-0.0038 0.18054,-0.180548 0.71856,-0.328262 1.19561,-0.328262 0.47704,0 0.95536,-0.142398 1.06292,-0.31644 0.10757,-0.174042 0.54317,-0.31644 0.968,-0.31644 0.42483,0 0.77242,-0.11582 0.77242,-0.257377 0,-0.141559 0.4984,-0.452933 1.10755,-0.691943 0.60914,-0.239011 1.10754,-0.54079 1.10754,-0.670619 0,-0.129829 0.27192,-0.322357 0.60427,-0.427843 0.73959,-0.234738 3.53577,-3.074284 4.66777,-4.740161 l 0.83014,-1.221674 1.43926,2.976378 c 0.79158,1.637008 1.53113,3.047578 1.64344,3.134599 0.1123,0.08702 0.33441,0.390531 0.49358,0.674463 0.50183,0.8952 2.46169,3.197829 3.58163,4.208055 0.59244,0.534391 1.37562,1.259517 1.74042,1.611385 1.13882,1.098462 4.14072,3.010592 6.20097,3.949852 0.26106,0.11902 0.79312,0.381026 1.18235,0.582241 0.38924,0.201214 0.98603,0.365845 1.3262,0.365845 0.34017,0 0.7065,0.142398 0.81407,0.31644 0.10756,0.174042 0.67716,0.31644 1.26576,0.31644 0.5886,0 1.1582,0.142399 1.26576,0.316441 0.1175,0.190123 2.26488,0.31644 5.37948,0.31644 3.1146,0 5.26198,-0.126317 5.37948,-0.31644 z"
     id="path4289"
     inkscape:connector-curvature="0" />
  <path
     style="fill:#9279e8;fill-opacity:1"
     d="M 60.251995,91.932514 C 55.236363,91.348372 49.91306,88.636025 45.595346,84.464617 43.080515,82.034997 41.356607,79.651108 39.702309,76.315488 38.96,74.818746 38.253605,73.594136 38.132544,73.594136 c -0.12106,0 -0.518806,0.483302 -0.88388,1.074007 -0.960088,1.553454 -4.850408,5.12542 -6.424748,5.898999 -3.746433,1.840871 -7.183275,2.426048 -11.102764,1.890426 -1.578714,-0.215743 -3.091458,-0.505922 -3.361654,-0.644845 -0.270195,-0.138921 -1.340224,-0.64619 -2.377843,-1.127264 C 11.193653,79.392852 7.6022677,75.714433 6.0615982,72.573468 4.5601526,69.512464 4.0264183,65.778465 4.5372602,61.909212 5.447709,55.013233 10.627761,49.233174 17.754064,47.161501 c 2.812003,-0.817472 8.185309,-0.531354 10.869134,0.578759 2.841816,1.175462 5.744054,3.357888 7.649059,5.75194 0.90368,1.135669 1.769491,2.064853 1.924028,2.064853 0.154537,0 0.837908,-1.116101 1.518602,-2.480224 1.934458,-3.87668 2.793995,-5.087486 5.547327,-7.814346 3.028024,-2.998911 6.380273,-5.173472 10.026922,-6.504333 6.174603,-2.253452 16.432922,-1.785571 21.227909,0.968203 3.634406,2.087247 4.625104,2.782986 6.554337,4.602928 2.986647,2.817452 4.498155,4.858838 6.321843,8.538047 l 1.547917,3.122857 0.788967,-1.244996 c 1.607861,-2.537211 5.51638,-5.625425 8.889681,-7.023946 1.59697,-0.662083 2.61643,-0.834961 5.59208,-0.948295 3.44653,-0.131269 3.77804,-0.08758 6.26596,0.825744 4.91293,1.803556 8.42123,4.953801 10.62495,9.540561 1.28915,2.683206 1.29257,2.700294 1.40765,7.034168 0.10827,4.077701 0.0645,4.475972 -0.71356,6.487021 -1.58749,4.103379 -5.28638,8.44656 -8.49206,9.971247 -3.13174,1.489519 -3.59551,1.597244 -7.53004,1.749069 -3.97614,0.153432 -6.21775,-0.181795 -8.524583,-1.274826 -2.125955,-1.00733 -4.562762,-2.978498 -6.343614,-5.131439 -1.08293,-1.309195 -2.009489,-2.380357 -2.059021,-2.380357 -0.04953,0 -0.803638,1.459579 -1.675791,3.24351 -4.074744,8.33461 -11.794958,13.988005 -20.607959,15.09089 -2.981172,0.373073 -5.133787,0.374102 -8.311807,0.004 l 0,-9e-6 z"
     id="path4313"
     inkscape:connector-curvature="0" />
  <rect
     style="fill:#9279e8;fill-opacity:1"
     id="rect4315"
     width="122.77874"
     height="67.71817"
     x="4.1137204"
     y="36.548824" />
  <g
     id="g4420"
     transform="matrix(1.8213172,0,0,1.8213173,9.7654599,30.795043)">
    <g
       id="layer1-9"
       style="opacity:0.98999999"
       transform="matrix(0.10565998,0,0,0.08189694,2.8374541,-23.897746)">
      <path
         id="path3757-0"
         style="fill:#00bfbf"
         inkscape:connector-curvature="0"
         d="m 180.26,645.27 170.98,-0.93122 17.472,-88.002 -204.05,-0.46562 z" />
    </g>
    <path
       sodipodi:nodetypes="ccccc"
       d="M 21.383847,5.8004207 11.116489,28.833064 48.446288,28.57705 40.014054,5.762176 Z"
       inkscape:connector-curvature="0"
       style="opacity:0.98999999;fill:#bfbfbf;fill-opacity:0.50195001;stroke:#adadad;stroke-width:0.77753305;stroke-linejoin:round"
       id="path2985-0" />
    <path
       style="fill:#ffffff"
       inkscape:connector-curvature="0"
       id="path3662"
       d="M 30.863414,2.0137806 A 15.975075,15.060562 0 0 0 14.99569,15.407247 a 8.8749314,8.3668749 0 0 0 -0.107476,-0.0065 8.8749314,8.3668749 0 0 0 -8.8749316,8.366874 8.8749314,8.3668749 0 0 0 8.8749316,8.366875 l 15.975073,0 14.199793,0 A 10.650216,10.040531 0 0 0 55.713793,22.094407 10.650216,10.040531 0 0 0 45.917919,12.093703 15.975075,15.060562 0 0 0 30.863788,2.0138134 Z m 0,5.0200314 A 10.650216,10.040531 0 0 1 41.513626,17.074343 10.650216,10.040531 0 0 1 30.863414,27.114874 10.650216,10.040531 0 0 1 20.213197,17.074343 10.650216,10.040531 0 0 1 30.863414,7.033812 Z" />
  </g>
</svg>
