<?xml version="1.0" encoding="UTF-8" standalone="no"?>
<svg
   xmlns:dc="http://purl.org/dc/elements/1.1/"
   xmlns:cc="http://creativecommons.org/ns#"
   xmlns:rdf="http://www.w3.org/1999/02/22-rdf-syntax-ns#"
   xmlns:svg="http://www.w3.org/2000/svg"
   xmlns="http://www.w3.org/2000/svg"
   xmlns:sodipodi="http://sodipodi.sourceforge.net/DTD/sodipodi-0.dtd"
   xmlns:inkscape="http://www.inkscape.org/namespaces/inkscape"
   xml:space="preserve"
   height="120"
   viewBox="0 0 252.00001 119.99799"
   width="252"
   version="1.1"
   y="0px"
   x="0px"
   enable-background="new 0 0 595.275 311.111"
   id="svg3658"
   inkscape:version="0.91 r13725"
   sodipodi:docname="logo.svg"
   inkscape:export-filename="/home/justin/git/android/quarterfull-android/res/drawable-hdpi/logo.png"
   inkscape:export-xdpi="107.25"
   inkscape:export-ydpi="107.25"><metadata
     id="metadata3668"><rdf:RDF><cc:Work
         rdf:about=""><dc:format>image/svg+xml</dc:format><dc:type
           rdf:resource="http://purl.org/dc/dcmitype/StillImage" /><dc:title></dc:title></cc:Work></rdf:RDF></metadata><defs
     id="defs3666" /><sodipodi:namedview
     pagecolor="#b87cff"
     bordercolor="#666666"
     borderopacity="1"
     objecttolerance="10"
     gridtolerance="10"
     guidetolerance="10"
     inkscape:pageopacity="0"
     inkscape:pageshadow="2"
     inkscape:window-width="907"
     inkscape:window-height="537"
     id="namedview3664"
     showgrid="false"
     inkscape:zoom="3.260548"
     inkscape:cx="57.689089"
     inkscape:cy="27.114289"
     inkscape:window-x="1003"
     inkscape:window-y="178"
     inkscape:window-maximized="0"
     inkscape:current-layer="layer4" /><text
     xml:space="preserve"
     style="font-style:normal;font-weight:normal;font-size:40px;line-height:125%;font-family:sans-serif;letter-spacing:0px;word-spacing:0px;fill:#000000;fill-opacity:1;stroke:none;stroke-width:1px;stroke-linecap:butt;stroke-linejoin:miter;stroke-opacity:1"
     x="130.65289"
     y="97.610115"
     id="text3670"
     sodipodi:linespacing="125%"><tspan
       sodipodi:role="line"
       id="tspan3672"
       x="130.65289"
       y="97.610115" /></text>
<g
     inkscape:groupmode="layer"
     id="layer5"
     inkscape:label="water" /><g
     inkscape:groupmode="layer"
     id="layer4"
     inkscape:label="main"><g
       transform="matrix(0.22550476,0,0,0.17229347,69.59186,-53.2817)"
       style="opacity:0.98999999"
       id="layer1"><path
         d="m 180.26,645.27 170.98,-0.93122 17.472,-88.002 -204.05,-0.46562 z"
         inkscape:connector-curvature="0"
         style="fill:#00bfbf"
         id="path3757" /></g><path
       id="path2985"
       style="opacity:0.98999999;fill:#bfbfbf;fill-opacity:0.50195001;stroke:#adadad;stroke-width:1.65944958;stroke-linejoin:round"
       inkscape:connector-curvature="0"
       d="M 109.17449,10.491635 87.261386,59.649046 166.93249,59.102648 148.936,10.410011 Z"
       sodipodi:nodetypes="ccccc" /><path
       d="M 129.40625,0.40999962 A 34.094796,32.143 0 0 0 95.540569,28.995 a 18.941318,17.857 0 0 0 -0.22938,-0.01393 18.941318,17.857 0 0 0 -18.941319,17.857 18.941318,17.857 0 0 0 18.941319,17.857 l 34.094791,0 30.3059,0 a 22.730218,21.429 0 0 0 22.73128,-21.428 22.730218,21.429 0 0 0 -20.90684,-21.344 34.094796,32.143 0 0 0 -32.12927,-21.51300038 z m 0,10.71400038 a 22.730218,21.429 0 0 1 22.73021,21.429 22.730218,21.429 0 0 1 -22.73021,21.429 22.730218,21.429 0 0 1 -22.73022,-21.429 22.730218,21.429 0 0 1 22.73022,-21.429 z"
       id="path3662"
       inkscape:connector-curvature="0"
       style="fill:#ffffff" /><g
       style="font-style:normal;font-variant:normal;font-weight:normal;font-stretch:normal;font-size:40.00000381px;line-height:125%;font-family:'URW Gothic L';-inkscape-font-specification:'URW Gothic L, Normal';text-align:start;letter-spacing:0px;word-spacing:0px;writing-mode:lr-tb;text-anchor:start;fill:#ffffff;fill-opacity:1;stroke:none;stroke-width:1px;stroke-linecap:butt;stroke-linejoin:miter;stroke-opacity:1"
       id="text4292"
       transform="translate(-1.9209297e-8,8.0000004)"><path
         d="m 52.591328,82.070796 -2.96,0 0,3.76 c -1.840001,-2.8 -4.880001,-4.28 -8.600001,-4.28 -6.520001,0 -11.520001,5 -11.520001,11.480001 0,6.440001 5.08,11.440003 11.600001,11.440003 3.64,0 6.6,-1.48 8.520001,-4.28 l 0,11.44 2.96,0 0,-29.560004 z m -11.440001,2.2 c 4.96,0 8.680001,3.800001 8.680001,8.880001 0,4.8 -3.840001,8.600003 -8.680001,8.600003 -4.920001,0 -8.640001,-3.760003 -8.640001,-8.680003 0,-5.04 3.72,-8.800001 8.640001,-8.800001 z"
         id="path3415"
         inkscape:connector-curvature="0" /><path
         d="m 76.896955,82.070796 -2.960001,0 0,11.240001 c 0,2.68 -0.4,4.36 -1.32,5.720001 -1.24,1.720002 -3.2,2.720002 -5.48,2.720002 -2.440001,0 -4.520001,-1 -5.520001,-2.760002 -0.68,-1.120001 -1.04,-2.880001 -1.04,-5.120001 l 0,-11.800001 -2.96,0 0,11.800001 c 0,3.24 0.56,5.520001 1.72,7.120003 1.64,2.28 4.28,3.48 7.560001,3.48 3.4,0 5.56,-1.2 7.04,-3.92 l 0,3.4 2.960001,0 0,-21.880004 z"
         id="path3417"
         inkscape:connector-curvature="0" /><path
         d="m 104.19383,82.070796 -2.96,0 0,3.88 c -2.159999,-3.04 -4.839999,-4.4 -8.639999,-4.4 -6.560001,0 -11.520001,4.96 -11.520001,11.520001 0,6.520001 5,11.400003 11.720001,11.400003 3.72,0 6.12,-1.24 8.439999,-4.36 l 0,3.84 2.96,0 0,-21.880004 z m -11.519999,2.2 c 4.8,0 8.559999,3.760001 8.559999,8.640001 0,4.96 -3.679999,8.840003 -8.399999,8.840003 -4.960001,0 -8.760001,-3.880003 -8.760001,-8.880003 0,-4.76 3.84,-8.600001 8.600001,-8.600001 z"
         id="path3419"
         inkscape:connector-curvature="0" /><path
         d="m 109.25758,103.9508 2.96,0 0,-12.760003 c 0,-4.080001 2.08,-6.320001 6.2,-6.720001 l 0,-2.92 c -3.16,0.16 -5.04,1.24 -6.2,3.64 l 0,-3.12 -2.96,0 0,21.880004 z"
         id="path3421"
         inkscape:connector-curvature="0" /><path
         d="m 123.96883,103.9508 2.96,0 0,-19.200004 4.92,0 0,-2.68 -4.92,0 0,-7.680001 -2.96,0 0,7.680001 -4.72,0 0,2.68 4.72,0 0,19.200004 z"
         id="path3423"
         inkscape:connector-curvature="0" /><path
         d="m 156.80259,93.990797 c 0,-3 -0.4,-4.84 -1.48,-6.760001 -1.96,-3.48 -5.76001,-5.68 -9.92001,-5.68 -6.36,0 -11.36,5 -11.36,11.360001 0,6.480001 5.08,11.560003 11.56,11.560003 2.8,0 5.44,-1.04 7.44001,-2.92 1.56,-1.48 2.6,-3.000002 3.2,-4.800003 l -3.08,0 c -1.24,3.000001 -4.32001,5.000003 -7.64001,5.000003 -4.48,0 -8.28,-3.440003 -8.52,-7.760003 l 19.80001,0 z m -19.72001,-2.68 c 0.8,-4.200001 4.12,-7.040001 8.28,-7.040001 4.24,0 7.48001,2.68 8.48001,7.040001 l -16.76001,0 z"
         id="path3425"
         inkscape:connector-curvature="0" /><path
         d="m 160.89822,103.9508 2.96,0 0,-12.760003 c 0,-4.080001 2.08,-6.320001 6.2,-6.720001 l 0,-2.92 c -3.16,0.16 -5.04,1.24 -6.2,3.64 l 0,-3.12 -2.96,0 0,21.880004 z"
         id="path3427"
         inkscape:connector-curvature="0" /><path
         d="m 174.44947,103.9508 2.96,0 0,-19.200004 5.44,0 0,-2.68 -5.44,0 c -0.04,-3.64 1.4,-4.960001 5.44,-5.000001 l 0,-2.68 c -5.64,0 -8.48,2.6 -8.4,7.680001 l -3.4,0 0,2.68 3.4,0 0,19.200004 z"
         id="path3429"
         inkscape:connector-curvature="0" /><path
         d="m 204.78759,82.070796 -2.96,0 0,11.240001 c 0,2.68 -0.4,4.36 -1.32,5.720001 -1.24,1.720002 -3.2,2.720002 -5.48,2.720002 -2.44,0 -4.52,-1 -5.52,-2.760002 -0.68,-1.120001 -1.04,-2.880001 -1.04,-5.120001 l 0,-11.800001 -2.96,0 0,11.800001 c 0,3.24 0.56,5.520001 1.72,7.120003 1.64,2.28 4.28,3.48 7.56,3.48 3.4,0 5.56,-1.2 7.04,-3.92 l 0,3.4 2.96,0 0,-21.880004 z"
         id="path3431"
         inkscape:connector-curvature="0" /><path
         d="m 209.80447,103.9508 2.96,0 0,-29.560005 -2.96,0 0,29.560005 z"
         id="path3433"
         inkscape:connector-curvature="0" /><path
         d="m 217.77322,103.9508 2.96,0 0,-29.560005 -2.96,0 0,29.560005 z"
         id="path3435"
         inkscape:connector-curvature="0" /></g></g></svg>