<?xml version="1.0" encoding="UTF-8" standalone="no"?>
<svg
   xmlns:dc="http://purl.org/dc/elements/1.1/"
   xmlns:cc="http://creativecommons.org/ns#"
   xmlns:rdf="http://www.w3.org/1999/02/22-rdf-syntax-ns#"
   xmlns:svg="http://www.w3.org/2000/svg"
   xmlns="http://www.w3.org/2000/svg"
   xmlns:sodipodi="http://sodipodi.sourceforge.net/DTD/sodipodi-0.dtd"
   xmlns:inkscape="http://www.inkscape.org/namespaces/inkscape"
   enable-background="new 0 0 595.275 311.111"
   xml:space="preserve"
   height="62"
   width="62"
   version="1.1"
   y="0px"
   x="0px"
   viewBox="0 0 62.001102 62"
   id="svg4052"
   inkscape:version="0.91 r13725"
   sodipodi:docname="notification-icon.svg"
   inkscape:export-filename="/home/justin/git/android/quarterfull-android/res/drawable-xxxhdpi/notification_icon.png"
   inkscape:export-xdpi="240"
   inkscape:export-ydpi="240"><metadata
     id="metadata4060"><rdf:RDF><cc:Work
         rdf:about=""><dc:format>image/svg+xml</dc:format><dc:type
           rdf:resource="http://purl.org/dc/dcmitype/StillImage" /><dc:title></dc:title></cc:Work></rdf:RDF></metadata><defs
     id="defs4058" /><sodipodi:namedview
     pagecolor="#b869ff"
     bordercolor="#666666"
     borderopacity="1"
     objecttolerance="10"
     gridtolerance="10"
     guidetolerance="10"
     inkscape:pageopacity="0"
     inkscape:pageshadow="2"
     inkscape:window-width="983"
     inkscape:window-height="1042"
     id="namedview4056"
     showgrid="false"
     inkscape:zoom="4.532258"
     inkscape:cx="19.588696"
     inkscape:cy="7.7309271"
     inkscape:window-x="10"
     inkscape:window-y="178"
     inkscape:window-maximized="0"
     inkscape:current-layer="svg4052" /><g
     id="g5427"
     transform="matrix(1.0233082,0,0,1.0233082,-0.78785732,11.231129)"><g
       id="layer1-9"
       style="opacity:0.98999999"
       transform="matrix(0.10565998,0,0,0.08189694,2.8374541,-21.89771)"><path
         id="path3757-0"
         style="fill:#ffffff;fill-opacity:0.62195123"
         inkscape:connector-curvature="0"
         d="m 180.26,645.27 170.98,-0.93122 17.472,-88.002 -204.05,-0.46562 z" /></g><path
       style="fill:#ffffff"
       inkscape:connector-curvature="0"
       id="path3662"
       d="M 30.863414,4.0138162 A 15.975075,15.060562 0 0 0 14.99569,17.407283 a 8.8749314,8.3668749 0 0 0 -0.107476,-0.0065 8.8749314,8.3668749 0 0 0 -8.8749316,8.366874 8.8749314,8.3668749 0 0 0 8.8749316,8.366875 l 15.975073,0 14.199793,0 A 10.650216,10.040531 0 0 0 55.713793,24.094443 10.650216,10.040531 0 0 0 45.917919,14.093739 15.975075,15.060562 0 0 0 30.863788,4.013849 Z m 0,5.0200314 A 10.650216,10.040531 0 0 1 41.513626,19.074379 10.650216,10.040531 0 0 1 30.863414,29.11491 10.650216,10.040531 0 0 1 20.213197,19.074379 10.650216,10.040531 0 0 1 30.863414,9.0338476 Z" /></g></svg>